<?xml version="1.0" standalone="no"?><!DOCTYPE svg PUBLIC "-//W3C//DTD SVG 1.1//EN" "http://www.w3.org/Graphics/SVG/1.1/DTD/svg11.dtd"><svg t="1618149397390" class="icon" viewBox="0 0 1243 1024" version="1.1" xmlns="http://www.w3.org/2000/svg" p-id="2052" xmlns:xlink="http://www.w3.org/1999/xlink" width="242.7734375" height="200"><defs><style type="text/css"></style></defs><path d="M84.171728 54.148691h1080.293193v155.47644H84.171728z" fill="#d4237a" p-id="2053"></path><path d="M1166.609424 983.790576H77.202094V40.209424h1089.40733v943.581152z m-23.589529-919.991623H100.791623v896.402094h1042.228272V63.798953z" fill="#d4237a" p-id="2054"></path><path d="M86.31623 151.187435H1158.031414v24.125654H86.31623zM1013.277487 85.780105h11.794764v45.034555H1013.277487zM1057.775916 85.780105h11.794765v45.034555h-11.794765zM1099.057592 85.780105h11.794764v45.034555H1099.057592zM384.402094 450.34555l-106.152879 104.008377 106.152879 104.544502v48.251309l-154.940314-152.795811L384.402094 402.094241zM885.679581 658.898429l105.616754-104.544502L885.679581 450.34555v-48.251309l154.940314 152.259686-154.940314 152.795811zM494.961927 860.685403l234.512083-619.77734 19.053906 7.21089-234.512084 619.77734z" fill="#d4237a" p-id="2055"></path></svg>